<svg id="my-svg" width="100%" xmlns="http://www.w3.org/2000/svg" xmlns:xlink="http://www.w3.org/1999/xlink" class="flowchart" style="max-width: 1255.42px; background-color: white;" viewBox="0 0 1255.421875 686" role="graphics-document document" aria-roledescription="flowchart-v2"><style>#my-svg{font-family:"trebuchet ms",verdana,arial,sans-serif;font-size:16px;fill:#333;}@keyframes edge-animation-frame{from{stroke-dashoffset:0;}}@keyframes dash{to{stroke-dashoffset:0;}}#my-svg .edge-animation-slow{stroke-dasharray:9,5!important;stroke-dashoffset:900;animation:dash 50s linear infinite;stroke-linecap:round;}#my-svg .edge-animation-fast{stroke-dasharray:9,5!important;stroke-dashoffset:900;animation:dash 20s linear infinite;stroke-linecap:round;}#my-svg .error-icon{fill:#552222;}#my-svg .error-text{fill:#552222;stroke:#552222;}#my-svg .edge-thickness-normal{stroke-width:1px;}#my-svg .edge-thickness-thick{stroke-width:3.5px;}#my-svg .edge-pattern-solid{stroke-dasharray:0;}#my-svg .edge-thickness-invisible{stroke-width:0;fill:none;}#my-svg .edge-pattern-dashed{stroke-dasharray:3;}#my-svg .edge-pattern-dotted{stroke-dasharray:2;}#my-svg .marker{fill:#333333;stroke:#333333;}#my-svg .marker.cross{stroke:#333333;}#my-svg svg{font-family:"trebuchet ms",verdana,arial,sans-serif;font-size:16px;}#my-svg p{margin:0;}#my-svg .label{font-family:"trebuchet ms",verdana,arial,sans-serif;color:#333;}#my-svg .cluster-label text{fill:#333;}#my-svg .cluster-label span{color:#333;}#my-svg .cluster-label span p{background-color:transparent;}#my-svg .label text,#my-svg span{fill:#333;color:#333;}#my-svg .node rect,#my-svg .node circle,#my-svg .node ellipse,#my-svg .node polygon,#my-svg .node path{fill:#ECECFF;stroke:#9370DB;stroke-width:1px;}#my-svg .rough-node .label text,#my-svg .node .label text,#my-svg .image-shape .label,#my-svg .icon-shape .label{text-anchor:middle;}#my-svg .node .katex path{fill:#000;stroke:#000;stroke-width:1px;}#my-svg .rough-node .label,#my-svg .node .label,#my-svg .image-shape .label,#my-svg .icon-shape .label{text-align:center;}#my-svg .node.clickable{cursor:pointer;}#my-svg .root .anchor path{fill:#333333!important;stroke-width:0;stroke:#333333;}#my-svg .arrowheadPath{fill:#333333;}#my-svg .edgePath .path{stroke:#333333;stroke-width:1px;}#my-svg .flowchart-link{stroke:#333333;fill:none;}#my-svg .edgeLabel{background-color:rgba(232,232,232, 0.8);text-align:center;}#my-svg .edgeLabel p{background-color:rgba(232,232,232, 0.8);}#my-svg .edgeLabel rect{opacity:0.5;background-color:rgba(232,232,232, 0.8);fill:rgba(232,232,232, 0.8);}#my-svg .labelBkg{background-color:rgba(232, 232, 232, 0.5);}#my-svg .cluster rect{fill:#ffffde;stroke:#aaaa33;stroke-width:1px;}#my-svg .cluster text{fill:#333;}#my-svg .cluster span{color:#333;}#my-svg .node .collapsed-indicator{fill:#aaaa33;stroke:none;opacity:0.6;}#my-svg .node .collapsed-separator{stroke:#aaaa33;stroke-width:0.75px;}#my-svg div.mermaidTooltip{position:absolute;text-align:center;max-width:200px;padding:2px;font-family:"trebuchet ms",verdana,arial,sans-serif;font-size:12px;background:hsl(80, 100%, 96.2745098039%);border:1px solid #aaaa33;border-radius:2px;pointer-events:none;z-index:100;}#my-svg .flowchartTitleText{text-anchor:middle;font-size:18px;fill:#333;}#my-svg rect.text{fill:none;stroke-width:0;}#my-svg .icon-shape,#my-svg .image-shape{background-color:rgba(232,232,232, 0.8);text-align:center;}#my-svg .icon-shape p,#my-svg .image-shape p{background-color:rgba(232,232,232, 0.8);padding:2px;}#my-svg .icon-shape .label rect,#my-svg .image-shape .label rect{opacity:0.5;background-color:rgba(232,232,232, 0.8);fill:rgba(232,232,232, 0.8);}#my-svg .label-icon{display:inline-block;height:1em;overflow:visible;vertical-align:-0.125em;}#my-svg .node .label-icon path{fill:currentColor;stroke:revert;stroke-width:revert;}#my-svg .node .neo-node{stroke:#9370DB;}#my-svg [data-look="neo"].node rect,#my-svg [data-look="neo"].cluster rect,#my-svg [data-look="neo"].node polygon{stroke:#9370DB;filter:drop-shadow(1px 2px 2px rgba(185, 185, 185, 1));}#my-svg [data-look="neo"].swimlane.cluster rect{filter:none;}#my-svg [data-look="neo"].node path{stroke:#9370DB;stroke-width:1px;}#my-svg [data-look="neo"].node .outer-path{filter:drop-shadow(1px 2px 2px rgba(185, 185, 185, 1));}#my-svg [data-look="neo"].node .neo-line path{stroke:#9370DB;filter:none;}#my-svg [data-look="neo"].node circle{stroke:#9370DB;filter:drop-shadow(1px 2px 2px rgba(185, 185, 185, 1));}#my-svg [data-look="neo"].node circle .state-start{fill:#000000;}#my-svg [data-look="neo"].icon-shape .icon{fill:#9370DB;filter:drop-shadow(1px 2px 2px rgba(185, 185, 185, 1));}#my-svg [data-look="neo"].icon-shape .icon-neo path{stroke:#9370DB;filter:drop-shadow(1px 2px 2px rgba(185, 185, 185, 1));}#my-svg :root{--mermaid-font-family:"trebuchet ms",verdana,arial,sans-serif;}</style><g><marker id="my-svg_flowchart-v2-pointEnd" class="marker flowchart-v2" viewBox="0 0 10 10" refX="5" refY="5" markerUnits="userSpaceOnUse" markerWidth="8" markerHeight="8" orient="auto"><path d="M 0 0 L 10 5 L 0 10 z" class="arrowMarkerPath" style="stroke-width: 1; stroke-dasharray: 1, 0;"/></marker><marker id="my-svg_flowchart-v2-pointStart" class="marker flowchart-v2" viewBox="0 0 10 10" refX="4.5" refY="5" markerUnits="userSpaceOnUse" markerWidth="8" markerHeight="8" orient="auto"><path d="M 0 5 L 10 10 L 10 0 z" class="arrowMarkerPath" style="stroke-width: 1; stroke-dasharray: 1, 0;"/></marker><marker id="my-svg_flowchart-v2-pointEnd-margin" class="marker flowchart-v2" viewBox="0 0 11.5 14" refX="11.5" refY="7" markerUnits="userSpaceOnUse" markerWidth="10.5" markerHeight="14" orient="auto"><path d="M 0 0 L 11.5 7 L 0 14 z" class="arrowMarkerPath" style="stroke-width: 0; stroke-dasharray: 1, 0;"/></marker><marker id="my-svg_flowchart-v2-pointStart-margin" class="marker flowchart-v2" viewBox="0 0 11.5 14" refX="1" refY="7" markerUnits="userSpaceOnUse" markerWidth="11.5" markerHeight="14" orient="auto"><polygon points="0,7 11.5,14 11.5,0" class="arrowMarkerPath" style="stroke-width: 0; stroke-dasharray: 1, 0;"/></marker><marker id="my-svg_flowchart-v2-circleEnd" class="marker flowchart-v2" viewBox="0 0 10 10" refX="11" refY="5" markerUnits="userSpaceOnUse" markerWidth="11" markerHeight="11" orient="auto"><circle cx="5" cy="5" r="5" class="arrowMarkerPath" style="stroke-width: 1; stroke-dasharray: 1, 0;"/></marker><marker id="my-svg_flowchart-v2-circleStart" class="marker flowchart-v2" viewBox="0 0 10 10" refX="-1" refY="5" markerUnits="userSpaceOnUse" markerWidth="11" markerHeight="11" orient="auto"><circle cx="5" cy="5" r="5" class="arrowMarkerPath" style="stroke-width: 1; stroke-dasharray: 1, 0;"/></marker><marker id="my-svg_flowchart-v2-circleEnd-margin" class="marker flowchart-v2" viewBox="0 0 10 10" refY="5" refX="12.25" markerUnits="userSpaceOnUse" markerWidth="14" markerHeight="14" orient="auto"><circle cx="5" cy="5" r="5" class="arrowMarkerPath" style="stroke-width: 0; stroke-dasharray: 1, 0;"/></marker><marker id="my-svg_flowchart-v2-circleStart-margin" class="marker flowchart-v2" viewBox="0 0 10 10" refX="-2" refY="5" markerUnits="userSpaceOnUse" markerWidth="14" markerHeight="14" orient="auto"><circle cx="5" cy="5" r="5" class="arrowMarkerPath" style="stroke-width: 0; stroke-dasharray: 1, 0;"/></marker><marker id="my-svg_flowchart-v2-crossEnd" class="marker cross flowchart-v2" viewBox="0 0 11 11" refX="12" refY="5.2" markerUnits="userSpaceOnUse" markerWidth="11" markerHeight="11" orient="auto"><path d="M 1,1 l 9,9 M 10,1 l -9,9" class="arrowMarkerPath" style="stroke-width: 2; stroke-dasharray: 1, 0;"/></marker><marker id="my-svg_flowchart-v2-crossStart" class="marker cross flowchart-v2" viewBox="0 0 11 11" refX="-1" refY="5.2" markerUnits="userSpaceOnUse" markerWidth="11" markerHeight="11" orient="auto"><path d="M 1,1 l 9,9 M 10,1 l -9,9" class="arrowMarkerPath" style="stroke-width: 2; stroke-dasharray: 1, 0;"/></marker><marker id="my-svg_flowchart-v2-crossEnd-margin" class="marker cross flowchart-v2" viewBox="0 0 15 15" refX="17.7" refY="7.5" markerUnits="userSpaceOnUse" markerWidth="12" markerHeight="12" orient="auto"><path d="M 1,1 L 14,14 M 1,14 L 14,1" class="arrowMarkerPath" style="stroke-width: 2.5;"/></marker><marker id="my-svg_flowchart-v2-crossStart-margin" class="marker cross flowchart-v2" viewBox="0 0 15 15" refX="-3.5" refY="7.5" markerUnits="userSpaceOnUse" markerWidth="12" markerHeight="12" orient="auto"><path d="M 1,1 L 14,14 M 1,14 L 14,1" class="arrowMarkerPath" style="stroke-width: 2.5; stroke-dasharray: 1, 0;"/></marker><g class="root"><g class="clusters"><g class="cluster" id="my-svg-subGraph3" data-look="classic"><rect style="" x="23.98828125" y="574" width="1219.64453125" height="104"/><g class="cluster-label" transform="translate(552.427734375, 574)"><foreignObject width="162.765625" height="24"><div xmlns="http://www.w3.org/1999/xhtml" style="display: table-cell; white-space: nowrap; line-height: 1.5;"><span class="nodeLabel"><p>Sovereign Cloud Stack</p></span></div></foreignObject></g></g><g class="cluster" id="my-svg-subGraph2" data-look="classic"><rect style="" x="162.18359375" y="420" width="978.71484375" height="104"/><g class="cluster-label" transform="translate(571.509765625, 420)"><foreignObject width="160.0625" height="24"><div xmlns="http://www.w3.org/1999/xhtml" style="display: table-cell; white-space: nowrap; line-height: 1.5;"><span class="nodeLabel"><p>Infrastructure Services</p></span></div></foreignObject></g></g><g class="cluster" id="my-svg-Services" data-look="classic"><rect style="" x="8.4375" y="266" width="1235.203125" height="104"/><g class="cluster-label" transform="translate(595.359375, 266)"><foreignObject width="61.359375" height="24"><div xmlns="http://www.w3.org/1999/xhtml" style="display: table-cell; white-space: nowrap; line-height: 1.5;"><span class="nodeLabel"><p>Services</p></span></div></foreignObject></g></g><g class="cluster" id="my-svg-Applications" data-look="classic"><rect style="" x="8" y="112" width="1239.421875" height="104"/><g class="cluster-label" transform="translate(584.5703125, 112)"><foreignObject width="86.28125" height="24"><div xmlns="http://www.w3.org/1999/xhtml" style="display: table-cell; white-space: nowrap; line-height: 1.5;"><span class="nodeLabel"><p>Applications</p></span></div></foreignObject></g></g></g><g class="edgePaths"><path d="M426.273,46.047L374.214,52.872C322.154,59.698,218.034,73.349,165.974,84.341C113.914,95.333,113.914,103.667,113.914,111.333C113.914,119,113.914,126,113.914,129.5L113.914,133" id="my-svg-L_OpenDeskEdu_Documents_0" class="edge-thickness-normal edge-pattern-solid edge-thickness-normal edge-pattern-solid flowchart-link" style=";" data-edge="true" data-et="edge" data-id="L_OpenDeskEdu_Documents_0" data-points="W3sieCI6NDI2LjI3MzQzNzUsInkiOjQ2LjA0NjkzOTk0MTMwMDQ1fSx7IngiOjExMy45MTQwNjI1LCJ5Ijo4N30seyJ4IjoxMTMuOTE0MDYyNSwieSI6MTEyfSx7IngiOjExMy45MTQwNjI1LCJ5IjoxMzd9XQ==" data-look="classic" marker-end="url(#my-svg_flowchart-v2-pointEnd)"/><path d="M426.273,61.375L412.63,65.646C398.986,69.917,371.698,78.458,358.054,86.896C344.41,95.333,344.41,103.667,344.41,111.333C344.41,119,344.41,126,344.41,129.5L344.41,133" id="my-svg-L_OpenDeskEdu_Email_0" class="edge-thickness-normal edge-pattern-solid edge-thickness-normal edge-pattern-solid flowchart-link" style=";" data-edge="true" data-et="edge" data-id="L_OpenDeskEdu_Email_0" data-points="W3sieCI6NDI2LjI3MzQzNzUsInkiOjYxLjM3NDc3MzY3MzE5NTg1fSx7IngiOjM0NC40MTAxNTYyNSwieSI6ODd9LHsieCI6MzQ0LjQxMDE1NjI1LCJ5IjoxMTJ9LHsieCI6MzQ0LjQxMDE1NjI1LCJ5IjoxMzd9XQ==" data-look="classic" marker-end="url(#my-svg_flowchart-v2-pointEnd)"/><path d="M594.789,47.558L638.896,54.132C683.003,60.705,771.216,73.853,815.323,84.593C859.43,95.333,859.43,103.667,859.43,111.333C859.43,119,859.43,126,859.43,129.5L859.43,133" id="my-svg-L_OpenDeskEdu_Projects_0" class="edge-thickness-normal edge-pattern-solid edge-thickness-normal edge-pattern-solid flowchart-link" style=";" data-edge="true" data-et="edge" data-id="L_OpenDeskEdu_Projects_0" data-points="W3sieCI6NTk0Ljc4OTA2MjUsInkiOjQ3LjU1NzgyNzA4OTcyNDM1Nn0seyJ4Ijo4NTkuNDI5Njg3NSwieSI6ODd9LHsieCI6ODU5LjQyOTY4NzUsInkiOjExMn0seyJ4Ijo4NTkuNDI5Njg3NSwieSI6MTM3fV0=" data-look="classic" marker-end="url(#my-svg_flowchart-v2-pointEnd)"/><path d="M594.789,42.321L680.497,49.767C766.206,57.214,937.622,72.107,1023.331,83.72C1109.039,95.333,1109.039,103.667,1109.039,111.333C1109.039,119,1109.039,126,1109.039,129.5L1109.039,133" id="my-svg-L_OpenDeskEdu_Chat_0" class="edge-thickness-normal edge-pattern-solid edge-thickness-normal edge-pattern-solid flowchart-link" style=";" data-edge="true" data-et="edge" data-id="L_OpenDeskEdu_Chat_0" data-points="W3sieCI6NTk0Ljc4OTA2MjUsInkiOjQyLjMyMDU0OTgwNDg1MzIxNX0seyJ4IjoxMTA5LjAzOTA2MjUsInkiOjg3fSx7IngiOjExMDkuMDM5MDYyNSwieSI6MTEyfSx7IngiOjExMDkuMDM5MDYyNSwieSI6MTM3fV0=" data-look="classic" marker-end="url(#my-svg_flowchart-v2-pointEnd)"/><path d="M113.914,191L113.914,195.167C113.914,199.333,113.914,207.667,113.914,216C113.914,224.333,113.914,232.667,113.914,241C113.914,249.333,113.914,257.667,113.914,265.333C113.914,273,113.914,280,113.914,283.5L113.914,287" id="my-svg-L_Documents_OpenCloud_0" class="edge-thickness-normal edge-pattern-solid edge-thickness-normal edge-pattern-solid flowchart-link" style=";" data-edge="true" data-et="edge" data-id="L_Documents_OpenCloud_0" data-points="W3sieCI6MTEzLjkxNDA2MjUsInkiOjE5MX0seyJ4IjoxMTMuOTE0MDYyNSwieSI6MjE2fSx7IngiOjExMy45MTQwNjI1LCJ5IjoyNDF9LHsieCI6MTEzLjkxNDA2MjUsInkiOjI2Nn0seyJ4IjoxMTMuOTE0MDYyNSwieSI6MjkxfV0=" data-look="classic" marker-end="url(#my-svg_flowchart-v2-pointEnd)"/><path d="M344.41,191L344.41,195.167C344.41,199.333,344.41,207.667,344.41,216C344.41,224.333,344.41,232.667,344.41,241C344.41,249.333,344.41,257.667,344.41,265.333C344.41,273,344.41,280,344.41,283.5L344.41,287" id="my-svg-L_Email_SOGo_0" class="edge-thickness-normal edge-pattern-solid edge-thickness-normal edge-pattern-solid flowchart-link" style=";" data-edge="true" data-et="edge" data-id="L_Email_SOGo_0" data-points="W3sieCI6MzQ0LjQxMDE1NjI1LCJ5IjoxOTF9LHsieCI6MzQ0LjQxMDE1NjI1LCJ5IjoyMTZ9LHsieCI6MzQ0LjQxMDE1NjI1LCJ5IjoyNDF9LHsieCI6MzQ0LjQxMDE1NjI1LCJ5IjoyNjZ9LHsieCI6MzQ0LjQxMDE1NjI1LCJ5IjoyOTF9XQ==" data-look="classic" marker-end="url(#my-svg_flowchart-v2-pointEnd)"/><path d="M859.43,191L859.43,195.167C859.43,199.333,859.43,207.667,859.43,216C859.43,224.333,859.43,232.667,859.43,241C859.43,249.333,859.43,257.667,859.43,265.333C859.43,273,859.43,280,859.43,283.5L859.43,287" id="my-svg-L_Projects_OpenProject_0" class="edge-thickness-normal edge-pattern-solid edge-thickness-normal edge-pattern-solid flowchart-link" style=";" data-edge="true" data-et="edge" data-id="L_Projects_OpenProject_0" data-points="W3sieCI6ODU5LjQyOTY4NzUsInkiOjE5MX0seyJ4Ijo4NTkuNDI5Njg3NSwieSI6MjE2fSx7IngiOjg1OS40Mjk2ODc1LCJ5IjoyNDF9LHsieCI6ODU5LjQyOTY4NzUsInkiOjI2Nn0seyJ4Ijo4NTkuNDI5Njg3NSwieSI6MjkxfV0=" data-look="classic" marker-end="url(#my-svg_flowchart-v2-pointEnd)"/><path d="M1109.039,191L1109.039,195.167C1109.039,199.333,1109.039,207.667,1109.039,216C1109.039,224.333,1109.039,232.667,1109.039,241C1109.039,249.333,1109.039,257.667,1109.039,265.333C1109.039,273,1109.039,280,1109.039,283.5L1109.039,287" id="my-svg-L_Chat_Matrix_0" class="edge-thickness-normal edge-pattern-solid edge-thickness-normal edge-pattern-solid flowchart-link" style=";" data-edge="true" data-et="edge" data-id="L_Chat_Matrix_0" data-points="W3sieCI6MTEwOS4wMzkwNjI1LCJ5IjoxOTF9LHsieCI6MTEwOS4wMzkwNjI1LCJ5IjoyMTZ9LHsieCI6MTEwOS4wMzkwNjI1LCJ5IjoyNDF9LHsieCI6MTEwOS4wMzkwNjI1LCJ5IjoyNjZ9LHsieCI6MTEwOS4wMzkwNjI1LCJ5IjoyOTF9XQ==" data-look="classic" marker-end="url(#my-svg_flowchart-v2-pointEnd)"/><path d="M99.453,345L97.221,349.167C94.989,353.333,90.526,361.667,88.294,370C86.063,378.333,86.063,386.667,111.725,395C137.387,403.333,188.711,411.667,220.224,419.637C251.738,427.607,263.44,435.213,269.292,439.017L275.143,442.82" id="my-svg-L_OpenCloud_Keycloak_0" class="edge-thickness-normal edge-pattern-solid edge-thickness-normal edge-pattern-solid flowchart-link" style=";" data-edge="true" data-et="edge" data-id="L_OpenCloud_Keycloak_0" data-points="W3sieCI6OTkuNDUyNjc0Mjc4ODQ2MTYsInkiOjM0NX0seyJ4Ijo4Ni4wNjI1LCJ5IjozNzB9LHsieCI6ODYuMDYyNSwieSI6Mzk1fSx7IngiOjI0MC4wMzUxNTYyNSwieSI6NDIwfSx7IngiOjI3OC40OTY2OTQ3MTE1Mzg0NSwieSI6NDQ1fV0=" data-look="classic" marker-end="url(#my-svg_flowchart-v2-pointEnd)"/><path d="M292.176,342.913L282.71,347.427C273.245,351.942,254.314,360.971,244.848,369.652C235.383,378.333,235.383,386.667,259.811,395C284.24,403.333,333.096,411.667,353.074,419.571C373.051,427.476,364.15,434.952,359.699,438.69L355.248,442.428" id="my-svg-L_SOGo_Keycloak_0" class="edge-thickness-normal edge-pattern-solid edge-thickness-normal edge-pattern-solid flowchart-link" style=";" data-edge="true" data-et="edge" data-id="L_SOGo_Keycloak_0" data-points="W3sieCI6MjkyLjE3NTc4MTI1LCJ5IjozNDIuOTEyOTAxNzIzMzM0ODd9LHsieCI6MjM1LjM4MjgxMjUsInkiOjM3MH0seyJ4IjoyMzUuMzgyODEyNSwieSI6Mzk1fSx7IngiOjM4MS45NTMxMjUsInkiOjQyMH0seyJ4IjozNTIuMTg0ODcwNzkzMjY5MiwieSI6NDQ1fV0=" data-look="classic" marker-end="url(#my-svg_flowchart-v2-pointEnd)"/><path d="M784.961,334.627L758.555,340.522C732.15,346.418,679.339,358.209,652.933,368.271C626.527,378.333,626.527,386.667,626.527,395C626.527,403.333,626.527,411.667,589.553,422.106C552.579,432.546,478.63,445.092,441.656,451.366L404.682,457.639" id="my-svg-L_OpenProject_Keycloak_0" class="edge-thickness-normal edge-pattern-solid edge-thickness-normal edge-pattern-solid flowchart-link" style=";" data-edge="true" data-et="edge" data-id="L_OpenProject_Keycloak_0" data-points="W3sieCI6Nzg0Ljk2MDkzNzUsInkiOjMzNC42MjY2MDM4MjczODIwNH0seyJ4Ijo2MjYuNTI3MzQzNzUsInkiOjM3MH0seyJ4Ijo2MjYuNTI3MzQzNzUsInkiOjM5NX0seyJ4Ijo2MjYuNTI3MzQzNzUsInkiOjQyMH0seyJ4Ijo0MDAuNzM4MjgxMjUsInkiOjQ1OC4zMDc3NjY4MTcwNTc5NH1d" data-look="classic" marker-end="url(#my-svg_flowchart-v2-pointEnd)"/><path d="M1056.059,345L1047.883,349.167C1039.707,353.333,1023.356,361.667,1015.18,370C1007.004,378.333,1007.004,386.667,996.104,395C985.203,403.333,963.402,411.667,863.022,423.319C762.642,434.972,583.683,449.943,494.204,457.429L404.724,464.915" id="my-svg-L_Matrix_Keycloak_0" class="edge-thickness-normal edge-pattern-solid edge-thickness-normal edge-pattern-solid flowchart-link" style=";" data-edge="true" data-et="edge" data-id="L_Matrix_Keycloak_0" data-points="W3sieCI6MTA1Ni4wNTkyNjk4MzE3MzA3LCJ5IjozNDV9LHsieCI6MTAwNy4wMDM5MDYyNSwieSI6MzcwfSx7IngiOjEwMDcuMDAzOTA2MjUsInkiOjM5NX0seyJ4Ijo5NDEuNjAxNTYyNSwieSI6NDIwfSx7IngiOjQwMC43MzgyODEyNSwieSI6NDY1LjI0ODQwODQ0Mzg4ODZ9XQ==" data-look="classic" marker-end="url(#my-svg_flowchart-v2-pointEnd)"/><path d="M344.41,345L344.41,349.167C344.41,353.333,344.41,361.667,344.41,370C344.41,378.333,344.41,386.667,372.148,395C399.887,403.333,455.363,411.667,483.59,419.34C511.818,427.013,512.795,434.026,513.284,437.532L513.773,441.038" id="my-svg-L_SOGo_Galera_0" class="edge-thickness-normal edge-pattern-solid edge-thickness-normal edge-pattern-solid flowchart-link" style=";" data-edge="true" data-et="edge" data-id="L_SOGo_Galera_0" data-points="W3sieCI6MzQ0LjQxMDE1NjI1LCJ5IjozNDV9LHsieCI6MzQ0LjQxMDE1NjI1LCJ5IjozNzB9LHsieCI6MzQ0LjQxMDE1NjI1LCJ5IjozOTV9LHsieCI6NTEwLjgzOTg0Mzc1LCJ5Ijo0MjB9LHsieCI6NTE0LjMyNTQyMDY3MzA3NjksInkiOjQ0NX1d" data-look="classic" marker-end="url(#my-svg_flowchart-v2-pointEnd)"/><path d="M1074.441,345L1069.102,349.167C1063.763,353.333,1053.085,361.667,1047.745,370C1042.406,378.333,1042.406,386.667,1031.468,395C1020.53,403.333,998.654,411.667,923.155,423.152C847.657,434.638,718.536,449.276,653.976,456.595L589.416,463.914" id="my-svg-L_Matrix_Galera_0" class="edge-thickness-normal edge-pattern-solid edge-thickness-normal edge-pattern-solid flowchart-link" style=";" data-edge="true" data-et="edge" data-id="L_Matrix_Galera_0" data-points="W3sieCI6MTA3NC40NDEyNTYwMDk2MTU1LCJ5IjozNDV9LHsieCI6MTA0Mi40MDYyNSwieSI6MzcwfSx7IngiOjEwNDIuNDA2MjUsInkiOjM5NX0seyJ4Ijo5NzYuNzc3MzQzNzUsInkiOjQyMH0seyJ4Ijo1ODUuNDQxNDA2MjUsInkiOjQ2NC4zNjQ1NTkyMDQyNTEyNH1d" data-look="classic" marker-end="url(#my-svg_flowchart-v2-pointEnd)"/><path d="M152.138,345L158.037,349.167C163.936,353.333,175.734,361.667,181.632,370C187.531,378.333,187.531,386.667,214.453,395C241.375,403.333,295.219,411.667,338.449,420.851C381.68,430.035,414.298,440.069,430.606,445.086L446.915,450.104" id="my-svg-L_OpenCloud_Galera_0" class="edge-thickness-normal edge-pattern-solid edge-thickness-normal edge-pattern-solid flowchart-link" style=";" data-edge="true" data-et="edge" data-id="L_OpenCloud_Galera_0" data-points="W3sieCI6MTUyLjEzODM3MTM5NDIzMDc3LCJ5IjozNDV9LHsieCI6MTg3LjUzMTI1LCJ5IjozNzB9LHsieCI6MTg3LjUzMTI1LCJ5IjozOTV9LHsieCI6MzQ5LjA2MjUsInkiOjQyMH0seyJ4Ijo0NTAuNzM4MjgxMjUsInkiOjQ1MS4yNzk3OTQ3ODE3MjQ1fV0=" data-look="classic" marker-end="url(#my-svg_flowchart-v2-pointEnd)"/><path d="M784.961,344.265L772.799,348.554C760.638,352.843,736.315,361.422,724.154,369.877C711.992,378.333,711.992,386.667,711.992,395C711.992,403.333,711.992,411.667,720.894,419.733C729.796,427.798,747.6,435.597,756.503,439.496L765.405,443.395" id="my-svg-L_OpenProject_PostgreSQL_0" class="edge-thickness-normal edge-pattern-solid edge-thickness-normal edge-pattern-solid flowchart-link" style=";" data-edge="true" data-et="edge" data-id="L_OpenProject_PostgreSQL_0" data-points="W3sieCI6Nzg0Ljk2MDkzNzUsInkiOjM0NC4yNjQ1MTg4NjM5MjU0fSx7IngiOjcxMS45OTIxODc1LCJ5IjozNzB9LHsieCI6NzExLjk5MjE4NzUsInkiOjM5NX0seyJ4Ijo3MTEuOTkyMTg3NSwieSI6NDIwfSx7IngiOjc2OS4wNjg1MDk2MTUzODQ2LCJ5Ijo0NDV9XQ==" data-look="classic" marker-end="url(#my-svg_flowchart-v2-pointEnd)"/><path d="M886.401,345L890.564,349.167C894.726,353.333,903.05,361.667,907.213,370C911.375,378.333,911.375,386.667,911.375,395C911.375,403.333,911.375,411.667,920.277,419.733C929.179,427.798,946.983,435.597,955.885,439.496L964.787,443.395" id="my-svg-L_OpenProject_Redis_0" class="edge-thickness-normal edge-pattern-solid edge-thickness-normal edge-pattern-solid flowchart-link" style=";" data-edge="true" data-et="edge" data-id="L_OpenProject_Redis_0" data-points="W3sieCI6ODg2LjQwMTI5MjA2NzMwNzcsInkiOjM0NX0seyJ4Ijo5MTEuMzc1LCJ5IjozNzB9LHsieCI6OTExLjM3NSwieSI6Mzk1fSx7IngiOjkxMS4zNzUsInkiOjQyMH0seyJ4Ijo5NjguNDUxMzIyMTE1Mzg0NiwieSI6NDQ1fV0=" data-look="classic" marker-end="url(#my-svg_flowchart-v2-pointEnd)"/><path d="M166.6,345L174.73,349.167C182.861,353.333,199.122,361.667,207.252,370C215.383,378.333,215.383,386.667,195.568,395C175.754,403.333,136.125,411.667,116.311,424.5C96.496,437.333,96.496,454.667,96.496,472C96.496,489.333,96.496,506.667,96.496,519.5C96.496,532.333,96.496,540.667,96.496,549C96.496,557.333,96.496,565.667,170.873,577.267C245.25,588.868,394.004,603.736,468.381,611.17L542.758,618.604" id="my-svg-L_OpenCloud_k3s_0" class="edge-thickness-normal edge-pattern-solid edge-thickness-normal edge-pattern-solid flowchart-link" style=";" data-edge="true" data-et="edge" data-id="L_OpenCloud_k3s_0" data-points="W3sieCI6MTY2LjU5OTc1OTYxNTM4NDYsInkiOjM0NX0seyJ4IjoyMTUuMzgyODEyNSwieSI6MzcwfSx7IngiOjIxNS4zODI4MTI1LCJ5IjozOTV9LHsieCI6OTYuNDk2MDkzNzUsInkiOjQyMH0seyJ4Ijo5Ni40OTYwOTM3NSwieSI6NDcyfSx7IngiOjk2LjQ5NjA5Mzc1LCJ5Ijo1MjR9LHsieCI6OTYuNDk2MDkzNzUsInkiOjU0OX0seyJ4Ijo5Ni40OTYwOTM3NSwieSI6NTc0fSx7IngiOjU0Ni43MzgyODEyNSwieSI6NjE5LjAwMTkwNzEwNzM1MzZ9XQ==" data-look="classic" marker-end="url(#my-svg_flowchart-v2-pointEnd)"/><path d="M354.795,345L356.397,349.167C358,353.333,361.205,361.667,362.808,370C364.41,378.333,364.41,386.667,326.424,395C288.439,403.333,212.467,411.667,174.482,424.5C136.496,437.333,136.496,454.667,136.496,472C136.496,489.333,136.496,506.667,136.496,519.5C136.496,532.333,136.496,540.667,136.496,549C136.496,557.333,136.496,565.667,204.207,577.165C271.918,588.663,407.34,603.326,475.051,610.657L542.762,617.988" id="my-svg-L_SOGo_k3s_0" class="edge-thickness-normal edge-pattern-solid edge-thickness-normal edge-pattern-solid flowchart-link" style=";" data-edge="true" data-et="edge" data-id="L_SOGo_k3s_0" data-points="W3sieCI6MzU0Ljc5NDc3MTYzNDYxNTM2LCJ5IjozNDV9LHsieCI6MzY0LjQxMDE1NjI1LCJ5IjozNzB9LHsieCI6MzY0LjQxMDE1NjI1LCJ5IjozOTV9LHsieCI6MTM2LjQ5NjA5Mzc1LCJ5Ijo0MjB9LHsieCI6MTM2LjQ5NjA5Mzc1LCJ5Ijo0NzJ9LHsieCI6MTM2LjQ5NjA5Mzc1LCJ5Ijo1MjR9LHsieCI6MTM2LjQ5NjA5Mzc1LCJ5Ijo1NDl9LHsieCI6MTM2LjQ5NjA5Mzc1LCJ5Ijo1NzR9LHsieCI6NTQ2LjczODI4MTI1LCJ5Ijo2MTguNDE5MDQ1NzU5OTI3MX1d" data-look="classic" marker-end="url(#my-svg_flowchart-v2-pointEnd)"/><path d="M925.67,345L935.892,349.167C946.115,353.333,966.559,361.667,976.782,370C987.004,378.333,987.004,386.667,1015.986,395C1044.969,403.333,1102.934,411.667,1131.916,424.5C1160.898,437.333,1160.898,454.667,1160.898,472C1160.898,489.333,1160.898,506.667,1160.898,519.5C1160.898,532.333,1160.898,540.667,1160.898,549C1160.898,557.333,1160.898,565.667,1082.541,577.321C1004.183,588.976,847.467,603.952,769.109,611.44L690.751,618.929" id="my-svg-L_OpenProject_k3s_0" class="edge-thickness-normal edge-pattern-solid edge-thickness-normal edge-pattern-solid flowchart-link" style=";" data-edge="true" data-et="edge" data-id="L_OpenProject_k3s_0" data-points="W3sieCI6OTI1LjY3MDE0NzIzNTU3NjksInkiOjM0NX0seyJ4Ijo5ODcuMDAzOTA2MjUsInkiOjM3MH0seyJ4Ijo5ODcuMDAzOTA2MjUsInkiOjM5NX0seyJ4IjoxMTYwLjg5ODQzNzUsInkiOjQyMH0seyJ4IjoxMTYwLjg5ODQzNzUsInkiOjQ3Mn0seyJ4IjoxMTYwLjg5ODQzNzUsInkiOjUyNH0seyJ4IjoxMTYwLjg5ODQzNzUsInkiOjU0OX0seyJ4IjoxMTYwLjg5ODQzNzUsInkiOjU3NH0seyJ4Ijo2ODYuNzY5NTMxMjUsInkiOjYxOS4zMDkxMDc2MTU4ODIxfV0=" data-look="classic" marker-end="url(#my-svg_flowchart-v2-pointEnd)"/><path d="M1146.468,345L1152.244,349.167C1158.021,353.333,1169.573,361.667,1175.349,370C1181.125,378.333,1181.125,386.667,1181.125,395C1181.125,403.333,1181.125,411.667,1181.125,424.5C1181.125,437.333,1181.125,454.667,1181.125,472C1181.125,489.333,1181.125,506.667,1181.125,519.5C1181.125,532.333,1181.125,540.667,1181.125,549C1181.125,557.333,1181.125,565.667,1099.396,577.364C1017.668,589.061,854.21,604.121,772.481,611.652L690.753,619.182" id="my-svg-L_Matrix_k3s_0" class="edge-thickness-normal edge-pattern-solid edge-thickness-normal edge-pattern-solid flowchart-link" style=";" data-edge="true" data-et="edge" data-id="L_Matrix_k3s_0" data-points="W3sieCI6MTE0Ni40NjgyOTkyNzg4NDYyLCJ5IjozNDV9LHsieCI6MTE4MS4xMjUsInkiOjM3MH0seyJ4IjoxMTgxLjEyNSwieSI6Mzk1fSx7IngiOjExODEuMTI1LCJ5Ijo0MjB9LHsieCI6MTE4MS4xMjUsInkiOjQ3Mn0seyJ4IjoxMTgxLjEyNSwieSI6NTI0fSx7IngiOjExODEuMTI1LCJ5Ijo1NDl9LHsieCI6MTE4MS4xMjUsInkiOjU3NH0seyJ4Ijo2ODYuNzY5NTMxMjUsInkiOjYxOS41NDg5MDMzMDA4MjU3fV0=" data-look="classic" marker-end="url(#my-svg_flowchart-v2-pointEnd)"/><path d="M320.035,499L320.035,503.167C320.035,507.333,320.035,515.667,320.035,524C320.035,532.333,320.035,540.667,320.035,549C320.035,557.333,320.035,565.667,357.162,576.34C394.29,587.013,468.544,600.026,505.671,606.533L542.798,613.039" id="my-svg-L_Keycloak_k3s_0" class="edge-thickness-normal edge-pattern-solid edge-thickness-normal edge-pattern-solid flowchart-link" style=";" data-edge="true" data-et="edge" data-id="L_Keycloak_k3s_0" data-points="W3sieCI6MzIwLjAzNTE1NjI1LCJ5Ijo0OTl9LHsieCI6MzIwLjAzNTE1NjI1LCJ5Ijo1MjR9LHsieCI6MzIwLjAzNTE1NjI1LCJ5Ijo1NDl9LHsieCI6MzIwLjAzNTE1NjI1LCJ5Ijo1NzR9LHsieCI6NTQ2LjczODI4MTI1LCJ5Ijo2MTMuNzI5NzUyNTAxMzE2NX1d" data-look="classic" marker-end="url(#my-svg_flowchart-v2-pointEnd)"/><path d="M518.09,499L518.09,503.167C518.09,507.333,518.09,515.667,518.09,524C518.09,532.333,518.09,540.667,518.09,549C518.09,557.333,518.09,565.667,525.406,573.689C532.722,581.712,547.354,589.423,554.67,593.279L561.986,597.135" id="my-svg-L_Galera_k3s_0" class="edge-thickness-normal edge-pattern-solid edge-thickness-normal edge-pattern-solid flowchart-link" style=";" data-edge="true" data-et="edge" data-id="L_Galera_k3s_0" data-points="W3sieCI6NTE4LjA4OTg0Mzc1LCJ5Ijo0OTl9LHsieCI6NTE4LjA4OTg0Mzc1LCJ5Ijo1MjR9LHsieCI6NTE4LjA4OTg0Mzc1LCJ5Ijo1NDl9LHsieCI6NTE4LjA4OTg0Mzc1LCJ5Ijo1NzR9LHsieCI6NTY1LjUyNDQ4OTE4MjY5MjMsInkiOjU5OX1d" data-look="classic" marker-end="url(#my-svg_flowchart-v2-pointEnd)"/><path d="M830.711,499L830.711,503.167C830.711,507.333,830.711,515.667,830.711,524C830.711,532.333,830.711,540.667,830.711,549C830.711,557.333,830.711,565.667,807.369,575.506C784.026,585.346,737.341,596.693,713.999,602.366L690.656,608.039" id="my-svg-L_PostgreSQL_k3s_0" class="edge-thickness-normal edge-pattern-solid edge-thickness-normal edge-pattern-solid flowchart-link" style=";" data-edge="true" data-et="edge" data-id="L_PostgreSQL_k3s_0" data-points="W3sieCI6ODMwLjcxMDkzNzUsInkiOjQ5OX0seyJ4Ijo4MzAuNzEwOTM3NSwieSI6NTI0fSx7IngiOjgzMC43MTA5Mzc1LCJ5Ijo1NDl9LHsieCI6ODMwLjcxMDkzNzUsInkiOjU3NH0seyJ4Ijo2ODYuNzY5NTMxMjUsInkiOjYwOC45ODM0NDA3NDYzNTMyfV0=" data-look="classic" marker-end="url(#my-svg_flowchart-v2-pointEnd)"/><path d="M1030.094,499L1030.094,503.167C1030.094,507.333,1030.094,515.667,1030.094,524C1030.094,532.333,1030.094,540.667,1030.094,549C1030.094,557.333,1030.094,565.667,973.534,576.949C916.975,588.231,803.857,602.462,747.297,609.577L690.738,616.692" id="my-svg-L_Redis_k3s_0" class="edge-thickness-normal edge-pattern-solid edge-thickness-normal edge-pattern-solid flowchart-link" style=";" data-edge="true" data-et="edge" data-id="L_Redis_k3s_0" data-points="W3sieCI6MTAzMC4wOTM3NSwieSI6NDk5fSx7IngiOjEwMzAuMDkzNzUsInkiOjUyNH0seyJ4IjoxMDMwLjA5Mzc1LCJ5Ijo1NDl9LHsieCI6MTAzMC4wOTM3NSwieSI6NTc0fSx7IngiOjY4Ni43Njk1MzEyNSwieSI6NjE3LjE5MTcyMTQwMDU1NzV9XQ==" data-look="classic" marker-end="url(#my-svg_flowchart-v2-pointEnd)"/></g><g class="edgeLabels"><g class="edgeLabel"><g class="label" data-id="L_OpenDeskEdu_Documents_0" transform="translate(0, 0)"><foreignObject width="0" height="0"><div xmlns="http://www.w3.org/1999/xhtml" class="labelBkg" style="display: table-cell; white-space: nowrap; line-height: 1.5; max-width: 200px; text-align: center;"><span class="edgeLabel"></span></div></foreignObject></g></g><g class="edgeLabel"><g class="label" data-id="L_OpenDeskEdu_Email_0" transform="translate(0, 0)"><foreignObject width="0" height="0"><div xmlns="http://www.w3.org/1999/xhtml" class="labelBkg" style="display: table-cell; white-space: nowrap; line-height: 1.5; max-width: 200px; text-align: center;"><span class="edgeLabel"></span></div></foreignObject></g></g><g class="edgeLabel"><g class="label" data-id="L_OpenDeskEdu_Projects_0" transform="translate(0, 0)"><foreignObject width="0" height="0"><div xmlns="http://www.w3.org/1999/xhtml" class="labelBkg" style="display: table-cell; white-space: nowrap; line-height: 1.5; max-width: 200px; text-align: center;"><span class="edgeLabel"></span></div></foreignObject></g></g><g class="edgeLabel"><g class="label" data-id="L_OpenDeskEdu_Chat_0" transform="translate(0, 0)"><foreignObject width="0" height="0"><div xmlns="http://www.w3.org/1999/xhtml" class="labelBkg" style="display: table-cell; white-space: nowrap; line-height: 1.5; max-width: 200px; text-align: center;"><span class="edgeLabel"></span></div></foreignObject></g></g><g class="edgeLabel"><g class="label" data-id="L_Documents_OpenCloud_0" transform="translate(0, 0)"><foreignObject width="0" height="0"><div xmlns="http://www.w3.org/1999/xhtml" class="labelBkg" style="display: table-cell; white-space: nowrap; line-height: 1.5; max-width: 200px; text-align: center;"><span class="edgeLabel"></span></div></foreignObject></g></g><g class="edgeLabel"><g class="label" data-id="L_Email_SOGo_0" transform="translate(0, 0)"><foreignObject width="0" height="0"><div xmlns="http://www.w3.org/1999/xhtml" class="labelBkg" style="display: table-cell; white-space: nowrap; line-height: 1.5; max-width: 200px; text-align: center;"><span class="edgeLabel"></span></div></foreignObject></g></g><g class="edgeLabel"><g class="label" data-id="L_Projects_OpenProject_0" transform="translate(0, 0)"><foreignObject width="0" height="0"><div xmlns="http://www.w3.org/1999/xhtml" class="labelBkg" style="display: table-cell; white-space: nowrap; line-height: 1.5; max-width: 200px; text-align: center;"><span class="edgeLabel"></span></div></foreignObject></g></g><g class="edgeLabel"><g class="label" data-id="L_Chat_Matrix_0" transform="translate(0, 0)"><foreignObject width="0" height="0"><div xmlns="http://www.w3.org/1999/xhtml" class="labelBkg" style="display: table-cell; white-space: nowrap; line-height: 1.5; max-width: 200px; text-align: center;"><span class="edgeLabel"></span></div></foreignObject></g></g><g class="edgeLabel"><g class="label" data-id="L_OpenCloud_Keycloak_0" transform="translate(0, 0)"><foreignObject width="0" height="0"><div xmlns="http://www.w3.org/1999/xhtml" class="labelBkg" style="display: table-cell; white-space: nowrap; line-height: 1.5; max-width: 200px; text-align: center;"><span class="edgeLabel"></span></div></foreignObject></g></g><g class="edgeLabel"><g class="label" data-id="L_SOGo_Keycloak_0" transform="translate(0, 0)"><foreignObject width="0" height="0"><div xmlns="http://www.w3.org/1999/xhtml" class="labelBkg" style="display: table-cell; white-space: nowrap; line-height: 1.5; max-width: 200px; text-align: center;"><span class="edgeLabel"></span></div></foreignObject></g></g><g class="edgeLabel"><g class="label" data-id="L_OpenProject_Keycloak_0" transform="translate(0, 0)"><foreignObject width="0" height="0"><div xmlns="http://www.w3.org/1999/xhtml" class="labelBkg" style="display: table-cell; white-space: nowrap; line-height: 1.5; max-width: 200px; text-align: center;"><span class="edgeLabel"></span></div></foreignObject></g></g><g class="edgeLabel"><g class="label" data-id="L_Matrix_Keycloak_0" transform="translate(0, 0)"><foreignObject width="0" height="0"><div xmlns="http://www.w3.org/1999/xhtml" class="labelBkg" style="display: table-cell; white-space: nowrap; line-height: 1.5; max-width: 200px; text-align: center;"><span class="edgeLabel"></span></div></foreignObject></g></g><g class="edgeLabel"><g class="label" data-id="L_SOGo_Galera_0" transform="translate(0, 0)"><foreignObject width="0" height="0"><div xmlns="http://www.w3.org/1999/xhtml" class="labelBkg" style="display: table-cell; white-space: nowrap; line-height: 1.5; max-width: 200px; text-align: center;"><span class="edgeLabel"></span></div></foreignObject></g></g><g class="edgeLabel"><g class="label" data-id="L_Matrix_Galera_0" transform="translate(0, 0)"><foreignObject width="0" height="0"><div xmlns="http://www.w3.org/1999/xhtml" class="labelBkg" style="display: table-cell; white-space: nowrap; line-height: 1.5; max-width: 200px; text-align: center;"><span class="edgeLabel"></span></div></foreignObject></g></g><g class="edgeLabel"><g class="label" data-id="L_OpenCloud_Galera_0" transform="translate(0, 0)"><foreignObject width="0" height="0"><div xmlns="http://www.w3.org/1999/xhtml" class="labelBkg" style="display: table-cell; white-space: nowrap; line-height: 1.5; max-width: 200px; text-align: center;"><span class="edgeLabel"></span></div></foreignObject></g></g><g class="edgeLabel"><g class="label" data-id="L_OpenProject_PostgreSQL_0" transform="translate(0, 0)"><foreignObject width="0" height="0"><div xmlns="http://www.w3.org/1999/xhtml" class="labelBkg" style="display: table-cell; white-space: nowrap; line-height: 1.5; max-width: 200px; text-align: center;"><span class="edgeLabel"></span></div></foreignObject></g></g><g class="edgeLabel"><g class="label" data-id="L_OpenProject_Redis_0" transform="translate(0, 0)"><foreignObject width="0" height="0"><div xmlns="http://www.w3.org/1999/xhtml" class="labelBkg" style="display: table-cell; white-space: nowrap; line-height: 1.5; max-width: 200px; text-align: center;"><span class="edgeLabel"></span></div></foreignObject></g></g><g class="edgeLabel"><g class="label" data-id="L_OpenCloud_k3s_0" transform="translate(0, 0)"><foreignObject width="0" height="0"><div xmlns="http://www.w3.org/1999/xhtml" class="labelBkg" style="display: table-cell; white-space: nowrap; line-height: 1.5; max-width: 200px; text-align: center;"><span class="edgeLabel"></span></div></foreignObject></g></g><g class="edgeLabel"><g class="label" data-id="L_SOGo_k3s_0" transform="translate(0, 0)"><foreignObject width="0" height="0"><div xmlns="http://www.w3.org/1999/xhtml" class="labelBkg" style="display: table-cell; white-space: nowrap; line-height: 1.5; max-width: 200px; text-align: center;"><span class="edgeLabel"></span></div></foreignObject></g></g><g class="edgeLabel"><g class="label" data-id="L_OpenProject_k3s_0" transform="translate(0, 0)"><foreignObject width="0" height="0"><div xmlns="http://www.w3.org/1999/xhtml" class="labelBkg" style="display: table-cell; white-space: nowrap; line-height: 1.5; max-width: 200px; text-align: center;"><span class="edgeLabel"></span></div></foreignObject></g></g><g class="edgeLabel"><g class="label" data-id="L_Matrix_k3s_0" transform="translate(0, 0)"><foreignObject width="0" height="0"><div xmlns="http://www.w3.org/1999/xhtml" class="labelBkg" style="display: table-cell; white-space: nowrap; line-height: 1.5; max-width: 200px; text-align: center;"><span class="edgeLabel"></span></div></foreignObject></g></g><g class="edgeLabel"><g class="label" data-id="L_Keycloak_k3s_0" transform="translate(0, 0)"><foreignObject width="0" height="0"><div xmlns="http://www.w3.org/1999/xhtml" class="labelBkg" style="display: table-cell; white-space: nowrap; line-height: 1.5; max-width: 200px; text-align: center;"><span class="edgeLabel"></span></div></foreignObject></g></g><g class="edgeLabel"><g class="label" data-id="L_Galera_k3s_0" transform="translate(0, 0)"><foreignObject width="0" height="0"><div xmlns="http://www.w3.org/1999/xhtml" class="labelBkg" style="display: table-cell; white-space: nowrap; line-height: 1.5; max-width: 200px; text-align: center;"><span class="edgeLabel"></span></div></foreignObject></g></g><g class="edgeLabel"><g class="label" data-id="L_PostgreSQL_k3s_0" transform="translate(0, 0)"><foreignObject width="0" height="0"><div xmlns="http://www.w3.org/1999/xhtml" class="labelBkg" style="display: table-cell; white-space: nowrap; line-height: 1.5; max-width: 200px; text-align: center;"><span class="edgeLabel"></span></div></foreignObject></g></g><g class="edgeLabel"><g class="label" data-id="L_Redis_k3s_0" transform="translate(0, 0)"><foreignObject width="0" height="0"><div xmlns="http://www.w3.org/1999/xhtml" class="labelBkg" style="display: table-cell; white-space: nowrap; line-height: 1.5; max-width: 200px; text-align: center;"><span class="edgeLabel"></span></div></foreignObject></g></g></g><g class="nodes"><g class="node default" id="my-svg-flowchart-OpenDeskEdu-0" data-look="classic" transform="translate(510.53125, 35)"><rect class="basic label-container" style="" x="-84.2578125" y="-27" width="168.515625" height="54"/><g class="label" style="" transform="translate(-54.2578125, -12)"><rect/><foreignObject width="108.515625" height="24"><div xmlns="http://www.w3.org/1999/xhtml" style="display: table-cell; white-space: nowrap; line-height: 1.5; max-width: 200px; text-align: center;"><span class="nodeLabel"><p>OpenDesk Edu</p></span></div></foreignObject></g></g><g class="node default" id="my-svg-flowchart-Documents-1" data-look="classic" transform="translate(113.9140625, 164)"><rect class="basic label-container" style="" x="-70.9140625" y="-27" width="141.828125" height="54"/><g class="label" style="" transform="translate(-40.9140625, -12)"><rect/><foreignObject width="81.828125" height="24"><div xmlns="http://www.w3.org/1999/xhtml" style="display: table-cell; white-space: nowrap; line-height: 1.5; max-width: 200px; text-align: center;"><span class="nodeLabel"><p>Dokumente</p></span></div></foreignObject></g></g><g class="node default" id="my-svg-flowchart-Email-2" data-look="classic" transform="translate(344.41015625, 164)"><rect class="basic label-container" style="" x="-102.0234375" y="-27" width="204.046875" height="54"/><g class="label" style="" transform="translate(-72.0234375, -12)"><rect/><foreignObject width="144.046875" height="24"><div xmlns="http://www.w3.org/1999/xhtml" style="display: table-cell; white-space: nowrap; line-height: 1.5; max-width: 200px; text-align: center;"><span class="nodeLabel"><p>E-Mail &amp; Groupware</p></span></div></foreignObject></g></g><g class="node default" id="my-svg-flowchart-Projects-3" data-look="classic" transform="translate(859.4296875, 164)"><rect class="basic label-container" style="" x="-59.3515625" y="-27" width="118.703125" height="54"/><g class="label" style="" transform="translate(-29.3515625, -12)"><rect/><foreignObject width="58.703125" height="24"><div xmlns="http://www.w3.org/1999/xhtml" style="display: table-cell; white-space: nowrap; line-height: 1.5; max-width: 200px; text-align: center;"><span class="nodeLabel"><p>Projekte</p></span></div></foreignObject></g></g><g class="node default" id="my-svg-flowchart-Chat-4" data-look="classic" transform="translate(1109.0390625, 164)"><rect class="basic label-container" style="" x="-103.3828125" y="-27" width="206.765625" height="54"/><g class="label" style="" transform="translate(-73.3828125, -12)"><rect/><foreignObject width="146.765625" height="24"><div xmlns="http://www.w3.org/1999/xhtml" style="display: table-cell; white-space: nowrap; line-height: 1.5; max-width: 200px; text-align: center;"><span class="nodeLabel"><p>Chat &amp; Kollaboration</p></span></div></foreignObject></g></g><g class="node default" id="my-svg-flowchart-OpenCloud-5" data-look="classic" transform="translate(113.9140625, 318)"><rect class="basic label-container" style="" x="-70.4765625" y="-27" width="140.953125" height="54"/><g class="label" style="" transform="translate(-40.4765625, -12)"><rect/><foreignObject width="80.953125" height="24"><div xmlns="http://www.w3.org/1999/xhtml" style="display: table-cell; white-space: nowrap; line-height: 1.5; max-width: 200px; text-align: center;"><span class="nodeLabel"><p>OpenCloud</p></span></div></foreignObject></g></g><g class="node default" id="my-svg-flowchart-SOGo-6" data-look="classic" transform="translate(344.41015625, 318)"><rect class="basic label-container" style="" x="-52.234375" y="-27" width="104.46875" height="54"/><g class="label" style="" transform="translate(-22.234375, -12)"><rect/><foreignObject width="44.46875" height="24"><div xmlns="http://www.w3.org/1999/xhtml" style="display: table-cell; white-space: nowrap; line-height: 1.5; max-width: 200px; text-align: center;"><span class="nodeLabel"><p>SOGo</p></span></div></foreignObject></g></g><g class="node default" id="my-svg-flowchart-OpenProject-7" data-look="classic" transform="translate(859.4296875, 318)"><rect class="basic label-container" style="" x="-74.46875" y="-27" width="148.9375" height="54"/><g class="label" style="" transform="translate(-44.46875, -12)"><rect/><foreignObject width="88.9375" height="24"><div xmlns="http://www.w3.org/1999/xhtml" style="display: table-cell; white-space: nowrap; line-height: 1.5; max-width: 200px; text-align: center;"><span class="nodeLabel"><p>OpenProject</p></span></div></foreignObject></g></g><g class="node default" id="my-svg-flowchart-Matrix-8" data-look="classic" transform="translate(1109.0390625, 318)"><rect class="basic label-container" style="" x="-99.6015625" y="-27" width="199.203125" height="54"/><g class="label" style="" transform="translate(-69.6015625, -12)"><rect/><foreignObject width="139.203125" height="24"><div xmlns="http://www.w3.org/1999/xhtml" style="display: table-cell; white-space: nowrap; line-height: 1.5; max-width: 200px; text-align: center;"><span class="nodeLabel"><p>Element + Synapse</p></span></div></foreignObject></g></g><g class="node default" id="my-svg-flowchart-Keycloak-9" data-look="classic" transform="translate(320.03515625, 472)"><rect class="basic label-container" style="" x="-80.703125" y="-27" width="161.40625" height="54"/><g class="label" style="" transform="translate(-50.703125, -12)"><rect/><foreignObject width="101.40625" height="24"><div xmlns="http://www.w3.org/1999/xhtml" style="display: table-cell; white-space: nowrap; line-height: 1.5; max-width: 200px; text-align: center;"><span class="nodeLabel"><p>Keycloak Auth</p></span></div></foreignObject></g></g><g class="node default" id="my-svg-flowchart-Galera-10" data-look="classic" transform="translate(518.08984375, 472)"><rect class="basic label-container" style="" x="-67.3515625" y="-27" width="134.703125" height="54"/><g class="label" style="" transform="translate(-37.3515625, -12)"><rect/><foreignObject width="74.703125" height="24"><div xmlns="http://www.w3.org/1999/xhtml" style="display: table-cell; white-space: nowrap; line-height: 1.5; max-width: 200px; text-align: center;"><span class="nodeLabel"><p>Galera DB</p></span></div></foreignObject></g></g><g class="node default" id="my-svg-flowchart-PostgreSQL-11" data-look="classic" transform="translate(830.7109375, 472)"><rect class="basic label-container" style="" x="-73.578125" y="-27" width="147.15625" height="54"/><g class="label" style="" transform="translate(-43.578125, -12)"><rect/><foreignObject width="87.15625" height="24"><div xmlns="http://www.w3.org/1999/xhtml" style="display: table-cell; white-space: nowrap; line-height: 1.5; max-width: 200px; text-align: center;"><span class="nodeLabel"><p>PostgreSQL</p></span></div></foreignObject></g></g><g class="node default" id="my-svg-flowchart-Redis-12" data-look="classic" transform="translate(1030.09375, 472)"><rect class="basic label-container" style="" x="-75.8046875" y="-27" width="151.609375" height="54"/><g class="label" style="" transform="translate(-45.8046875, -12)"><rect/><foreignObject width="91.609375" height="24"><div xmlns="http://www.w3.org/1999/xhtml" style="display: table-cell; white-space: nowrap; line-height: 1.5; max-width: 200px; text-align: center;"><span class="nodeLabel"><p>Redis Cache</p></span></div></foreignObject></g></g><g class="node default" id="my-svg-flowchart-k3s-13" data-look="classic" transform="translate(616.75390625, 626)"><rect class="basic label-container" style="" x="-70.015625" y="-27" width="140.03125" height="54"/><g class="label" style="" transform="translate(-40.015625, -12)"><rect/><foreignObject width="80.03125" height="24"><div xmlns="http://www.w3.org/1999/xhtml" style="display: table-cell; white-space: nowrap; line-height: 1.5; max-width: 200px; text-align: center;"><span class="nodeLabel"><p>k3s Cluster</p></span></div></foreignObject></g></g></g></g></g><defs><filter id="my-svg-drop-shadow" height="130%" width="130%"><feDropShadow dx="4" dy="4" stdDeviation="0" flood-opacity="0.06" flood-color="#000000"/></filter></defs><defs><filter id="my-svg-drop-shadow-small" height="150%" width="150%"><feDropShadow dx="2" dy="2" stdDeviation="0" flood-opacity="0.06" flood-color="#000000"/></filter></defs></svg>